<svg xmlns="http://www.w3.org/2000/svg" width="225" height="225" viewBox="0 0 225 225"><g transform="translate(0 0.03)"><path d="M1079.82-110.39a13.64,13.64,0,0,0,7.16-6.07q2.61-4.38,2.61-11.44,0-10.23-4.79-15.11t-15.4-4.88h-7.06v39.18h3.76Q1075.28-108.71,1079.82-110.39Z" transform="translate(-916.6 175.97)" fill="#1b1b1c"/><path d="M973.39-143q-4.78,4.89-4.78,15.11,0,7.05,2.6,11.44a13.67,13.67,0,0,0,7.16,6.07q4.54,1.68,13.72,1.68h3.76v-39.18h-7.06Q978.17-147.89,973.39-143Z" transform="translate(-916.6 175.97)" fill="#1b1b1c"/><path d="M962.9-65.73h22.32c3.13-.09,5.34-.46,6.61-1.09a6.54,6.54,0,0,0,3.13-3q.88-1.87.89-9.14V-104H990Z" transform="translate(-916.6 175.97)" fill="#1b1b1c"/><path d="M1040.48-69.85c.59-1.24.89-4.27.89-9.11v-58c0-4.83-.3-7.88-.89-9.13a6.531,6.531,0,0,0-3.14-3c-1.48-.73-4.23-1.11-8.24-1.12s-6.77.39-8.25,1.12a6.51,6.51,0,0,0-3.13,3c-.59,1.25-.89,4.3-.89,9.13V-79c0,4.84.3,7.87.89,9.11a6.69,6.69,0,0,0,3.1,3q1.88,1,6.65,1.12h3.26q4.76-.15,6.65-1.12a6.79,6.79,0,0,0,3.1-2.96Z" transform="translate(-916.6 175.97)" fill="#1b1b1c"/><path d="M1062.34-104v25q0,7.26.89,9.14a6.56,6.56,0,0,0,3.14,3c1.49.75,4.29,1.12,8.37,1.12v2.44h-38l24.08,56.51,24.27-59h10.2L1068.21-104Z" transform="translate(-916.6 175.97)" fill="#1b1b1c"/><path d="M916.6-176V49h225V-176ZM1125.21-63.26H1118a12,12,0,0,0-5.71,1.36,6.471,6.471,0,0,0-2.64,3.1q-.72,1.57-.72,8.25v59q0,6.86.72,8.57a6.539,6.539,0,0,0,3,3,12.12,12.12,0,0,0,6,1.28h2.9v2.44h-46.7V21.28h2.9a12.6,12.6,0,0,0,6.34-1.38,6.37,6.37,0,0,0,2.63-3.17c.49-1.05.73-3.83.73-8.31v-66.3l-34.3,81.6h-1.59l-34.82-81v63a56.251,56.251,0,0,0,.32,8.11,9.43,9.43,0,0,0,3.73,5.37q2.88,2.09,9,2.08v2.44H999.15V21.28h.92a13.9,13.9,0,0,0,5.54-1,9,9,0,0,0,3.89-2.74,12.511,12.511,0,0,0,2-4.82q.13-.72.13-6.73V-50.55q0-6.8-.72-8.48a6.71,6.71,0,0,0-3-3,11.551,11.551,0,0,0-5.36-1.26H997.8a12,12,0,0,0-5.71,1.36,6.43,6.43,0,0,0-2.64,3.17q-.72,1.57-.72,8.31v43.8q0,12.86-2.58,18.7A21.61,21.61,0,0,1,977,21.84a30.21,30.21,0,0,1-15.8,3.93q-11.28,0-18.24-5.94T936,6.7a10.15,10.15,0,0,1,2.84-7.48,9.34,9.34,0,0,1,6.92-2.87,9.47,9.47,0,0,1,6.76,2.57,8.33,8.33,0,0,1,2.74,6.33,10.112,10.112,0,0,1-.46,3.23,28.842,28.842,0,0,1-2.08,3.34c-1.21,1.78-1.81,3-1.81,3.79a3.64,3.64,0,0,0,1.71,3,10.75,10.75,0,0,0,6.53,1.84A7.35,7.35,0,0,0,963.86,19a7.881,7.881,0,0,0,2.6-4.51q.76-3.08.76-17.06V-50.42c0-4.58-.25-7.43-.76-8.58a6.77,6.77,0,0,0-3-3,11.32,11.32,0,0,0-5.33-1.26H933V-65.7a11.16,11.16,0,0,0,6.26-2.24q1.79-1.45,6-7.32l21.51-30.28q-8.18-2-12.73-6.14A21.13,21.13,0,0,1,946.9-128a22.26,22.26,0,0,1,4.75-14.15,23.93,23.93,0,0,1,12.27-8.27q7.53-2.25,23.75-2.25h82.85q16.23,0,23.75,2.25a23.93,23.93,0,0,1,12.27,8.27,22.2,22.2,0,0,1,4.75,14.15,21.131,21.131,0,0,1-7.12,16.36q-4.56,4.09-12.74,6.14l21.51,30.28q4.21,5.87,6,7.32a11.17,11.17,0,0,0,6.27,2.24Z" transform="translate(-916.6 175.97)" fill="#1b1b1c"/></g></svg>