<?xml version="1.0" standalone="no"?>
<!DOCTYPE svg PUBLIC "-//W3C//DTD SVG 20010904//EN"
 "http://www.w3.org/TR/2001/REC-SVG-20010904/DTD/svg10.dtd">
<svg version="1.0" xmlns="http://www.w3.org/2000/svg"
 width="900.000000pt" height="900.000000pt" viewBox="0 0 900.000000 900.000000"
 preserveAspectRatio="xMidYMid meet">
<metadata>
Created by potrace 1.14, written by Peter Selinger 2001-2017
</metadata>
<g transform="translate(0.000000,900.000000) scale(0.100000,-0.100000)"
fill="#000000" stroke="none">
<path d="M2425 8059 c-168 -10 -390 -41 -500 -70 -99 -25 -247 -94 -329 -153
-74 -53 -187 -171 -239 -249 -100 -150 -140 -296 -141 -502 0 -262 68 -438
237 -613 113 -116 261 -202 445 -258 48 -15 90 -30 94 -33 7 -6 -818 -1175
-948 -1343 -125 -161 -197 -213 -327 -239 l-57 -12 0 -48 0 -48 558 -3 c614
-4 590 -1 687 -68 61 -42 92 -92 105 -170 16 -96 8 -2765 -9 -2838 -42 -182
-138 -265 -307 -264 -151 0 -272 57 -308 145 l-19 46 29 58 c16 32 53 94 82
138 83 128 93 246 31 372 -119 246 -487 271 -654 45 -57 -76 -78 -163 -73
-290 4 -84 10 -120 30 -170 42 -101 88 -170 173 -257 192 -197 407 -285 730
-301 381 -19 696 93 918 325 113 118 171 233 206 408 41 203 43 263 50 1448
l6 1150 28 57 c34 70 77 109 154 139 54 22 72 24 258 24 222 0 268 -9 352 -67
60 -40 90 -90 102 -168 7 -43 11 -532 11 -1430 l0 -1365 -26 -78 c-55 -164
-214 -266 -416 -267 l-58 0 0 -50 0 -50 615 0 615 0 0 50 0 50 -47 0 c-76 1
-197 26 -257 53 -77 35 -140 98 -178 175 -29 58 -33 79 -39 181 -10 161 -11
2713 -1 2707 4 -2 318 -727 697 -1610 l690 -1606 34 2 34 3 668 1590 c368 875
675 1604 683 1620 13 27 15 -133 13 -1420 -2 -1122 -5 -1458 -15 -1486 -18
-54 -63 -116 -103 -143 -62 -41 -127 -58 -256 -63 l-123 -6 0 -48 0 -49 935 0
935 0 0 49 0 49 -117 4 c-138 5 -211 25 -280 77 -68 51 -91 104 -103 232 -12
136 -12 2622 0 2758 11 123 32 174 95 229 73 64 121 75 348 80 l197 4 0 48 0
47 -57 12 c-130 26 -202 78 -327 239 -131 169 -955 1337 -948 1343 4 4 41 16
82 29 297 88 521 269 626 506 48 110 68 216 68 369 -1 266 -71 447 -249 634
-87 92 -167 149 -286 205 -161 76 -368 116 -703 136 -213 12 -3908 11 -4121
-1z m2296 -103 c41 -8 93 -23 115 -34 60 -30 110 -92 131 -159 17 -55 18 -142
18 -1483 0 -1355 -1 -1428 -18 -1485 -27 -86 -91 -146 -189 -177 -66 -21 -92
-23 -278 -23 -186 0 -212 2 -278 23 -98 31 -162 91 -189 177 -17 57 -18 130
-18 1485 0 1341 1 1428 18 1483 33 106 111 169 242 192 94 17 351 18 446 1z
m-1551 -861 l0 -785 -148 0 c-388 0 -604 55 -738 189 -134 134 -204 330 -204
576 0 267 68 475 199 606 76 77 151 118 278 154 112 32 214 42 436 44 l177 1
0 -785z m3085 774 c212 -21 358 -80 466 -188 131 -131 199 -339 199 -606 0
-246 -70 -442 -204 -576 -134 -134 -350 -189 -738 -189 l-148 0 0 785 0 785
158 0 c87 0 208 -5 267 -11z m-3085 -2327 c0 -581 -6 -706 -37 -783 -22 -57
-93 -115 -172 -141 -64 -21 -82 -22 -585 -26 -311 -2 -517 0 -515 6 2 5 245
349 539 765 l535 757 118 0 117 0 0 -578z m3430 -179 c294 -416 536 -760 538
-764 2 -5 -88 -10 -199 -11 l-203 -3 -477 -1160 c-263 -638 -481 -1166 -486
-1172 -5 -8 -182 396 -483 1103 -261 614 -476 1120 -478 1125 -2 5 326 9 757
9 l761 0 0 48 0 49 -112 6 c-145 8 -229 33 -290 87 -93 81 -98 127 -98 862 l0
578 118 0 117 0 535 -757z"/>
</g>
</svg>
